<mxfile host="app.diagrams.net" modified="2024-02-06T03:23:39.156Z" agent="Mozilla/5.0 (Macintosh; Intel Mac OS X 10_15_7) AppleWebKit/537.36 (KHTML, like Gecko) Chrome/120.0.0.0 Safari/537.36" etag="WIPgvhbFs7uYPQWw4QV5" version="22.1.18" type="github">
  <diagram id="9fnjXT7nlAm7Ix4f8WDv" name="Page-1">
    <mxGraphModel dx="1306" dy="162" grid="0" gridSize="10" guides="1" tooltips="1" connect="1" arrows="1" fold="1" page="1" pageScale="1" pageWidth="800" pageHeight="300" background="#EFF1F3" math="0" shadow="0">
      <root>
        <mxCell id="0" />
        <mxCell id="1" parent="0" />
        <mxCell id="iZpdW9SJ8lec0mTw7yVw-5" value="" style="shape=image;verticalLabelPosition=bottom;labelBackgroundColor=default;verticalAlign=top;aspect=fixed;imageAspect=0;image=data:image/svg+xml,PHN2ZyB4bWxuczp4bGluaz0iaHR0cDovL3d3dy53My5vcmcvMTk5OS94bGluayIgeG1sbnM9Imh0dHA6Ly93d3cudzMub3JnLzIwMDAvc3ZnIiBoZWlnaHQ9IjIwMCIgd2lkdGg9IjIwMCIgdmVyc2lvbj0iMS4xIiB2aWV3Qm94PSIwIDAgMTAyNCAxMDI0IiBjbGFzcz0iaWNvbiI+PHBhdGggZmlsbD0iIzRhOTA5YyIgZD0iTTcyNS4zMzMzMzMgOTM4LjY2NjY2NyAxMjggOTM4LjY2NjY2N2MtMjEuMzMzMzMzIDAtMzguNC0xNy4wNjY2NjctNDIuNjY2NjY3LTM4LjRsLTg1LjMzMzMzMy03NjhjMC0xMi44IDQuMjY2NjY3LTI1LjYgOC41MzMzMzMtMzQuMTMzMzMzQzE3LjA2NjY2NyA4OS42IDI5Ljg2NjY2NyA4NS4zMzMzMzMgNDIuNjY2NjY3IDg1LjMzMzMzM2w3NjggMGMxMi44IDAgMjUuNiA0LjI2NjY2NyAyOS44NjY2NjcgMTIuOEM4NDkuMDY2NjY3IDEwNi42NjY2NjcgODUzLjMzMzMzMyAxMTkuNDY2NjY3IDg1My4zMzMzMzMgMTMyLjI2NjY2N2wtODUuMzMzMzMzIDc2OEM3NjMuNzMzMzMzIDkyMS42IDc0Ni42NjY2NjcgOTM4LjY2NjY2NyA3MjUuMzMzMzMzIDkzOC42NjY2Njd6TTE2Ni40IDg1My4zMzMzMzNsNTIwLjUzMzMzMyAwIDc2LjgtNjgyLjY2NjY2N0w4OS42IDE3MC42NjY2NjcgMTY2LjQgODUzLjMzMzMzM3oiLz48cGF0aCBmaWxsPSIjNGE5MDljIiBkPSJNOTUxLjQ2NjY2NyA2NjUuNmMtMzguNCAwLTk4LjEzMzMzMy0xNy4wNjY2NjctMjA5LjA2NjY2Ny03Ni44LTcyLjUzMzMzMy0zOC40LTE2Mi4xMzMzMzMtOTMuODY2NjY3LTI2OC44LTE2Mi4xMzMzMzMtNDIuNjY2NjY3LTI5Ljg2NjY2Ny03Mi41MzMzMzMtNDYuOTMzMzMzLTcyLjUzMzMzMy00Ni45MzMzMzNDMzg0IDM2Mi42NjY2NjcgMzc5LjczMzMzMyAzMzcuMDY2NjY3IDM5Mi41MzMzMzMgMzE1LjczMzMzM2MxMi44LTIxLjMzMzMzMyAzOC40LTI1LjYgNTkuNzMzMzMzLTEyLjggMCAwIDI1LjYgMTcuMDY2NjY3IDY4LjI2NjY2NyA0Ni45MzMzMzMgMzguNCAyNS42IDE1Ny44NjY2NjcgMTAyLjQgMjY0LjUzMzMzMyAxNTcuODY2NjY3IDg1LjMzMzMzMyA0Ni45MzMzMzMgMTI4IDU5LjczMzMzMyAxNDkuMzMzMzMzIDY0LTEyLjgtMzguNC02NC0xMDIuNC0xNzQuOTMzMzMzLTE4Ny43MzMzMzMtMTcuMDY2NjY3LTEyLjgtMjEuMzMzMzMzLTQyLjY2NjY2Ny04LjUzMzMzMy01OS43MzMzMzMgMTIuOC0xNy4wNjY2NjcgNDIuNjY2NjY3LTIxLjMzMzMzMyA1OS43MzMzMzMtOC41MzMzMzMgMTQ1LjA2NjY2NyAxMTAuOTMzMzMzIDIxMy4zMzMzMzMgMjAwLjUzMzMzMyAyMTMuMzMzMzMzIDI3My4wNjY2NjcgMCAyNS42LTEyLjggNDYuOTMzMzMzLTI5Ljg2NjY2NyA1OS43MzMzMzNDOTgxLjMzMzMzMyA2NjEuMzMzMzMzIDk2OC41MzMzMzMgNjY1LjYgOTUxLjQ2NjY2NyA2NjUuNnoiLz48cGF0aCBmaWxsPSIjNGE5MDljIiBkPSJNNDI2LjY2NjY2NyAzNDEuMzMzMzMzbS04NS4zMzMzMzMgMGEyIDIgMCAxIDAgMTcwLjY2NjY2NyAwIDIgMiAwIDEgMC0xNzAuNjY2NjY3IDBaIi8+PHBhdGggZmlsbD0iIzRhOTA5YyIgZD0iTTQyNi42NjY2NjcgNDQ4Yy01OS43MzMzMzMgMC0xMDYuNjY2NjY3LTQ2LjkzMzMzMy0xMDYuNjY2NjY3LTEwNi42NjY2NjdTMzY2LjkzMzMzMyAyMzQuNjY2NjY3IDQyNi42NjY2NjcgMjM0LjY2NjY2N3MxMDYuNjY2NjY3IDQ2LjkzMzMzMyAxMDYuNjY2NjY3IDEwNi42NjY2NjdTNDg2LjQgNDQ4IDQyNi42NjY2NjcgNDQ4ek00MjYuNjY2NjY3IDI3Ny4zMzMzMzNDMzkyLjUzMzMzMyAyNzcuMzMzMzMzIDM2Mi42NjY2NjcgMzA3LjIgMzYyLjY2NjY2NyAzNDEuMzMzMzMzUzM5Mi41MzMzMzMgNDA1LjMzMzMzMyA0MjYuNjY2NjY3IDQwNS4zMzMzMzNzNjQtMjkuODY2NjY3IDY0LTY0UzQ2MC44IDI3Ny4zMzMzMzMgNDI2LjY2NjY2NyAyNzcuMzMzMzMzeiIvPjwvc3ZnPg==;" parent="1" vertex="1">
          <mxGeometry x="111" y="878.5" width="65" height="65" as="geometry" />
        </mxCell>
        <mxCell id="iZpdW9SJ8lec0mTw7yVw-7" value="" style="shape=image;verticalLabelPosition=bottom;labelBackgroundColor=default;verticalAlign=top;aspect=fixed;imageAspect=0;image=data:image/svg+xml,PHN2ZyB4bWxuczp4bGluaz0iaHR0cDovL3d3dy53My5vcmcvMTk5OS94bGluayIgeG1sbnM9Imh0dHA6Ly93d3cudzMub3JnLzIwMDAvc3ZnIiBoZWlnaHQ9IjIwMCIgd2lkdGg9IjIwMCIgdmVyc2lvbj0iMS4xIiB2aWV3Qm94PSIwIDAgMTAyNCAxMDI0IiBjbGFzcz0iaWNvbiI+PHBhdGggZmlsbD0iIzRhOTA5YyIgZD0iTTcyNS4zMzMzMzMgOTM4LjY2NjY2NyAxMjggOTM4LjY2NjY2N2MtMjEuMzMzMzMzIDAtMzguNC0xNy4wNjY2NjctNDIuNjY2NjY3LTM4LjRsLTg1LjMzMzMzMy03NjhjMC0xMi44IDQuMjY2NjY3LTI1LjYgOC41MzMzMzMtMzQuMTMzMzMzQzE3LjA2NjY2NyA4OS42IDI5Ljg2NjY2NyA4NS4zMzMzMzMgNDIuNjY2NjY3IDg1LjMzMzMzM2w3NjggMGMxMi44IDAgMjUuNiA0LjI2NjY2NyAyOS44NjY2NjcgMTIuOEM4NDkuMDY2NjY3IDEwNi42NjY2NjcgODUzLjMzMzMzMyAxMTkuNDY2NjY3IDg1My4zMzMzMzMgMTMyLjI2NjY2N2wtODUuMzMzMzMzIDc2OEM3NjMuNzMzMzMzIDkyMS42IDc0Ni42NjY2NjcgOTM4LjY2NjY2NyA3MjUuMzMzMzMzIDkzOC42NjY2Njd6TTE2Ni40IDg1My4zMzMzMzNsNTIwLjUzMzMzMyAwIDc2LjgtNjgyLjY2NjY2N0w4OS42IDE3MC42NjY2NjcgMTY2LjQgODUzLjMzMzMzM3oiLz48cGF0aCBmaWxsPSIjNGE5MDljIiBkPSJNOTUxLjQ2NjY2NyA2NjUuNmMtMzguNCAwLTk4LjEzMzMzMy0xNy4wNjY2NjctMjA5LjA2NjY2Ny03Ni44LTcyLjUzMzMzMy0zOC40LTE2Mi4xMzMzMzMtOTMuODY2NjY3LTI2OC44LTE2Mi4xMzMzMzMtNDIuNjY2NjY3LTI5Ljg2NjY2Ny03Mi41MzMzMzMtNDYuOTMzMzMzLTcyLjUzMzMzMy00Ni45MzMzMzNDMzg0IDM2Mi42NjY2NjcgMzc5LjczMzMzMyAzMzcuMDY2NjY3IDM5Mi41MzMzMzMgMzE1LjczMzMzM2MxMi44LTIxLjMzMzMzMyAzOC40LTI1LjYgNTkuNzMzMzMzLTEyLjggMCAwIDI1LjYgMTcuMDY2NjY3IDY4LjI2NjY2NyA0Ni45MzMzMzMgMzguNCAyNS42IDE1Ny44NjY2NjcgMTAyLjQgMjY0LjUzMzMzMyAxNTcuODY2NjY3IDg1LjMzMzMzMyA0Ni45MzMzMzMgMTI4IDU5LjczMzMzMyAxNDkuMzMzMzMzIDY0LTEyLjgtMzguNC02NC0xMDIuNC0xNzQuOTMzMzMzLTE4Ny43MzMzMzMtMTcuMDY2NjY3LTEyLjgtMjEuMzMzMzMzLTQyLjY2NjY2Ny04LjUzMzMzMy01OS43MzMzMzMgMTIuOC0xNy4wNjY2NjcgNDIuNjY2NjY3LTIxLjMzMzMzMyA1OS43MzMzMzMtOC41MzMzMzMgMTQ1LjA2NjY2NyAxMTAuOTMzMzMzIDIxMy4zMzMzMzMgMjAwLjUzMzMzMyAyMTMuMzMzMzMzIDI3My4wNjY2NjcgMCAyNS42LTEyLjggNDYuOTMzMzMzLTI5Ljg2NjY2NyA1OS43MzMzMzNDOTgxLjMzMzMzMyA2NjEuMzMzMzMzIDk2OC41MzMzMzMgNjY1LjYgOTUxLjQ2NjY2NyA2NjUuNnoiLz48cGF0aCBmaWxsPSIjNGE5MDljIiBkPSJNNDI2LjY2NjY2NyAzNDEuMzMzMzMzbS04NS4zMzMzMzMgMGEyIDIgMCAxIDAgMTcwLjY2NjY2NyAwIDIgMiAwIDEgMC0xNzAuNjY2NjY3IDBaIi8+PHBhdGggZmlsbD0iIzRhOTA5YyIgZD0iTTQyNi42NjY2NjcgNDQ4Yy01OS43MzMzMzMgMC0xMDYuNjY2NjY3LTQ2LjkzMzMzMy0xMDYuNjY2NjY3LTEwNi42NjY2NjdTMzY2LjkzMzMzMyAyMzQuNjY2NjY3IDQyNi42NjY2NjcgMjM0LjY2NjY2N3MxMDYuNjY2NjY3IDQ2LjkzMzMzMyAxMDYuNjY2NjY3IDEwNi42NjY2NjdTNDg2LjQgNDQ4IDQyNi42NjY2NjcgNDQ4ek00MjYuNjY2NjY3IDI3Ny4zMzMzMzNDMzkyLjUzMzMzMyAyNzcuMzMzMzMzIDM2Mi42NjY2NjcgMzA3LjIgMzYyLjY2NjY2NyAzNDEuMzMzMzMzUzM5Mi41MzMzMzMgNDA1LjMzMzMzMyA0MjYuNjY2NjY3IDQwNS4zMzMzMzNzNjQtMjkuODY2NjY3IDY0LTY0UzQ2MC44IDI3Ny4zMzMzMzMgNDI2LjY2NjY2NyAyNzcuMzMzMzMzeiIvPjwvc3ZnPg==;" parent="1" vertex="1">
          <mxGeometry x="191" y="878.5" width="65" height="65" as="geometry" />
        </mxCell>
        <mxCell id="iZpdW9SJ8lec0mTw7yVw-8" value="&lt;font color=&quot;#4a909b&quot; style=&quot;font-size: 18px;&quot;&gt;&lt;b style=&quot;font-size: 18px;&quot;&gt;&lt;font style=&quot;font-size: 18px;&quot;&gt;0&lt;/font&gt;&lt;/b&gt;&lt;br style=&quot;font-size: 18px;&quot;&gt;&lt;/font&gt;" style="text;html=1;strokeColor=none;fillColor=none;align=center;verticalAlign=middle;whiteSpace=wrap;rounded=0;fontSize=18;" parent="1" vertex="1">
          <mxGeometry x="111" y="951.5" width="49" height="30" as="geometry" />
        </mxCell>
        <mxCell id="iZpdW9SJ8lec0mTw7yVw-9" value="&lt;font color=&quot;#4a909b&quot; style=&quot;font-size: 18px;&quot;&gt;&lt;b style=&quot;font-size: 18px;&quot;&gt;&lt;font style=&quot;font-size: 18px;&quot;&gt;1&lt;/font&gt;&lt;/b&gt;&lt;br style=&quot;font-size: 18px;&quot;&gt;&lt;/font&gt;" style="text;html=1;strokeColor=none;fillColor=none;align=center;verticalAlign=middle;whiteSpace=wrap;rounded=0;fontSize=18;" parent="1" vertex="1">
          <mxGeometry x="190" y="951.5" width="49" height="30" as="geometry" />
        </mxCell>
        <mxCell id="iZpdW9SJ8lec0mTw7yVw-12" value="" style="shape=image;verticalLabelPosition=bottom;labelBackgroundColor=default;verticalAlign=top;aspect=fixed;imageAspect=0;image=data:image/svg+xml,PHN2ZyB4bWxuczp4bGluaz0iaHR0cDovL3d3dy53My5vcmcvMTk5OS94bGluayIgeG1sbnM9Imh0dHA6Ly93d3cudzMub3JnLzIwMDAvc3ZnIiBoZWlnaHQ9IjIwMCIgd2lkdGg9IjIwMCIgdmVyc2lvbj0iMS4xIiB2aWV3Qm94PSIwIDAgMTAyNCAxMDI0IiBjbGFzcz0iaWNvbiI+PHBhdGggZmlsbD0iIzRhOTA5YyIgZD0iTTcyNS4zMzMzMzMgOTM4LjY2NjY2NyAxMjggOTM4LjY2NjY2N2MtMjEuMzMzMzMzIDAtMzguNC0xNy4wNjY2NjctNDIuNjY2NjY3LTM4LjRsLTg1LjMzMzMzMy03NjhjMC0xMi44IDQuMjY2NjY3LTI1LjYgOC41MzMzMzMtMzQuMTMzMzMzQzE3LjA2NjY2NyA4OS42IDI5Ljg2NjY2NyA4NS4zMzMzMzMgNDIuNjY2NjY3IDg1LjMzMzMzM2w3NjggMGMxMi44IDAgMjUuNiA0LjI2NjY2NyAyOS44NjY2NjcgMTIuOEM4NDkuMDY2NjY3IDEwNi42NjY2NjcgODUzLjMzMzMzMyAxMTkuNDY2NjY3IDg1My4zMzMzMzMgMTMyLjI2NjY2N2wtODUuMzMzMzMzIDc2OEM3NjMuNzMzMzMzIDkyMS42IDc0Ni42NjY2NjcgOTM4LjY2NjY2NyA3MjUuMzMzMzMzIDkzOC42NjY2Njd6TTE2Ni40IDg1My4zMzMzMzNsNTIwLjUzMzMzMyAwIDc2LjgtNjgyLjY2NjY2N0w4OS42IDE3MC42NjY2NjcgMTY2LjQgODUzLjMzMzMzM3oiLz48cGF0aCBmaWxsPSIjNGE5MDljIiBkPSJNOTUxLjQ2NjY2NyA2NjUuNmMtMzguNCAwLTk4LjEzMzMzMy0xNy4wNjY2NjctMjA5LjA2NjY2Ny03Ni44LTcyLjUzMzMzMy0zOC40LTE2Mi4xMzMzMzMtOTMuODY2NjY3LTI2OC44LTE2Mi4xMzMzMzMtNDIuNjY2NjY3LTI5Ljg2NjY2Ny03Mi41MzMzMzMtNDYuOTMzMzMzLTcyLjUzMzMzMy00Ni45MzMzMzNDMzg0IDM2Mi42NjY2NjcgMzc5LjczMzMzMyAzMzcuMDY2NjY3IDM5Mi41MzMzMzMgMzE1LjczMzMzM2MxMi44LTIxLjMzMzMzMyAzOC40LTI1LjYgNTkuNzMzMzMzLTEyLjggMCAwIDI1LjYgMTcuMDY2NjY3IDY4LjI2NjY2NyA0Ni45MzMzMzMgMzguNCAyNS42IDE1Ny44NjY2NjcgMTAyLjQgMjY0LjUzMzMzMyAxNTcuODY2NjY3IDg1LjMzMzMzMyA0Ni45MzMzMzMgMTI4IDU5LjczMzMzMyAxNDkuMzMzMzMzIDY0LTEyLjgtMzguNC02NC0xMDIuNC0xNzQuOTMzMzMzLTE4Ny43MzMzMzMtMTcuMDY2NjY3LTEyLjgtMjEuMzMzMzMzLTQyLjY2NjY2Ny04LjUzMzMzMy01OS43MzMzMzMgMTIuOC0xNy4wNjY2NjcgNDIuNjY2NjY3LTIxLjMzMzMzMyA1OS43MzMzMzMtOC41MzMzMzMgMTQ1LjA2NjY2NyAxMTAuOTMzMzMzIDIxMy4zMzMzMzMgMjAwLjUzMzMzMyAyMTMuMzMzMzMzIDI3My4wNjY2NjcgMCAyNS42LTEyLjggNDYuOTMzMzMzLTI5Ljg2NjY2NyA1OS43MzMzMzNDOTgxLjMzMzMzMyA2NjEuMzMzMzMzIDk2OC41MzMzMzMgNjY1LjYgOTUxLjQ2NjY2NyA2NjUuNnoiLz48cGF0aCBmaWxsPSIjNGE5MDljIiBkPSJNNDI2LjY2NjY2NyAzNDEuMzMzMzMzbS04NS4zMzMzMzMgMGEyIDIgMCAxIDAgMTcwLjY2NjY2NyAwIDIgMiAwIDEgMC0xNzAuNjY2NjY3IDBaIi8+PHBhdGggZmlsbD0iIzRhOTA5YyIgZD0iTTQyNi42NjY2NjcgNDQ4Yy01OS43MzMzMzMgMC0xMDYuNjY2NjY3LTQ2LjkzMzMzMy0xMDYuNjY2NjY3LTEwNi42NjY2NjdTMzY2LjkzMzMzMyAyMzQuNjY2NjY3IDQyNi42NjY2NjcgMjM0LjY2NjY2N3MxMDYuNjY2NjY3IDQ2LjkzMzMzMyAxMDYuNjY2NjY3IDEwNi42NjY2NjdTNDg2LjQgNDQ4IDQyNi42NjY2NjcgNDQ4ek00MjYuNjY2NjY3IDI3Ny4zMzMzMzNDMzkyLjUzMzMzMyAyNzcuMzMzMzMzIDM2Mi42NjY2NjcgMzA3LjIgMzYyLjY2NjY2NyAzNDEuMzMzMzMzUzM5Mi41MzMzMzMgNDA1LjMzMzMzMyA0MjYuNjY2NjY3IDQwNS4zMzMzMzNzNjQtMjkuODY2NjY3IDY0LTY0UzQ2MC44IDI3Ny4zMzMzMzMgNDI2LjY2NjY2NyAyNzcuMzMzMzMzeiIvPjwvc3ZnPg==;" parent="1" vertex="1">
          <mxGeometry x="271" y="878.5" width="65" height="65" as="geometry" />
        </mxCell>
        <mxCell id="iZpdW9SJ8lec0mTw7yVw-14" value="" style="shape=image;verticalLabelPosition=bottom;labelBackgroundColor=default;verticalAlign=top;aspect=fixed;imageAspect=0;image=data:image/svg+xml,PHN2ZyB4bWxuczp4bGluaz0iaHR0cDovL3d3dy53My5vcmcvMTk5OS94bGluayIgeG1sbnM9Imh0dHA6Ly93d3cudzMub3JnLzIwMDAvc3ZnIiBoZWlnaHQ9IjIwMCIgd2lkdGg9IjIwMCIgdmVyc2lvbj0iMS4xIiB2aWV3Qm94PSIwIDAgMTAyNCAxMDI0IiBjbGFzcz0iaWNvbiI+PHBhdGggZmlsbD0iIzRhOTA5YyIgZD0iTTcyNS4zMzMzMzMgOTM4LjY2NjY2NyAxMjggOTM4LjY2NjY2N2MtMjEuMzMzMzMzIDAtMzguNC0xNy4wNjY2NjctNDIuNjY2NjY3LTM4LjRsLTg1LjMzMzMzMy03NjhjMC0xMi44IDQuMjY2NjY3LTI1LjYgOC41MzMzMzMtMzQuMTMzMzMzQzE3LjA2NjY2NyA4OS42IDI5Ljg2NjY2NyA4NS4zMzMzMzMgNDIuNjY2NjY3IDg1LjMzMzMzM2w3NjggMGMxMi44IDAgMjUuNiA0LjI2NjY2NyAyOS44NjY2NjcgMTIuOEM4NDkuMDY2NjY3IDEwNi42NjY2NjcgODUzLjMzMzMzMyAxMTkuNDY2NjY3IDg1My4zMzMzMzMgMTMyLjI2NjY2N2wtODUuMzMzMzMzIDc2OEM3NjMuNzMzMzMzIDkyMS42IDc0Ni42NjY2NjcgOTM4LjY2NjY2NyA3MjUuMzMzMzMzIDkzOC42NjY2Njd6TTE2Ni40IDg1My4zMzMzMzNsNTIwLjUzMzMzMyAwIDc2LjgtNjgyLjY2NjY2N0w4OS42IDE3MC42NjY2NjcgMTY2LjQgODUzLjMzMzMzM3oiLz48cGF0aCBmaWxsPSIjNGE5MDljIiBkPSJNOTUxLjQ2NjY2NyA2NjUuNmMtMzguNCAwLTk4LjEzMzMzMy0xNy4wNjY2NjctMjA5LjA2NjY2Ny03Ni44LTcyLjUzMzMzMy0zOC40LTE2Mi4xMzMzMzMtOTMuODY2NjY3LTI2OC44LTE2Mi4xMzMzMzMtNDIuNjY2NjY3LTI5Ljg2NjY2Ny03Mi41MzMzMzMtNDYuOTMzMzMzLTcyLjUzMzMzMy00Ni45MzMzMzNDMzg0IDM2Mi42NjY2NjcgMzc5LjczMzMzMyAzMzcuMDY2NjY3IDM5Mi41MzMzMzMgMzE1LjczMzMzM2MxMi44LTIxLjMzMzMzMyAzOC40LTI1LjYgNTkuNzMzMzMzLTEyLjggMCAwIDI1LjYgMTcuMDY2NjY3IDY4LjI2NjY2NyA0Ni45MzMzMzMgMzguNCAyNS42IDE1Ny44NjY2NjcgMTAyLjQgMjY0LjUzMzMzMyAxNTcuODY2NjY3IDg1LjMzMzMzMyA0Ni45MzMzMzMgMTI4IDU5LjczMzMzMyAxNDkuMzMzMzMzIDY0LTEyLjgtMzguNC02NC0xMDIuNC0xNzQuOTMzMzMzLTE4Ny43MzMzMzMtMTcuMDY2NjY3LTEyLjgtMjEuMzMzMzMzLTQyLjY2NjY2Ny04LjUzMzMzMy01OS43MzMzMzMgMTIuOC0xNy4wNjY2NjcgNDIuNjY2NjY3LTIxLjMzMzMzMyA1OS43MzMzMzMtOC41MzMzMzMgMTQ1LjA2NjY2NyAxMTAuOTMzMzMzIDIxMy4zMzMzMzMgMjAwLjUzMzMzMyAyMTMuMzMzMzMzIDI3My4wNjY2NjcgMCAyNS42LTEyLjggNDYuOTMzMzMzLTI5Ljg2NjY2NyA1OS43MzMzMzNDOTgxLjMzMzMzMyA2NjEuMzMzMzMzIDk2OC41MzMzMzMgNjY1LjYgOTUxLjQ2NjY2NyA2NjUuNnoiLz48cGF0aCBmaWxsPSIjNGE5MDljIiBkPSJNNDI2LjY2NjY2NyAzNDEuMzMzMzMzbS04NS4zMzMzMzMgMGEyIDIgMCAxIDAgMTcwLjY2NjY2NyAwIDIgMiAwIDEgMC0xNzAuNjY2NjY3IDBaIi8+PHBhdGggZmlsbD0iIzRhOTA5YyIgZD0iTTQyNi42NjY2NjcgNDQ4Yy01OS43MzMzMzMgMC0xMDYuNjY2NjY3LTQ2LjkzMzMzMy0xMDYuNjY2NjY3LTEwNi42NjY2NjdTMzY2LjkzMzMzMyAyMzQuNjY2NjY3IDQyNi42NjY2NjcgMjM0LjY2NjY2N3MxMDYuNjY2NjY3IDQ2LjkzMzMzMyAxMDYuNjY2NjY3IDEwNi42NjY2NjdTNDg2LjQgNDQ4IDQyNi42NjY2NjcgNDQ4ek00MjYuNjY2NjY3IDI3Ny4zMzMzMzNDMzkyLjUzMzMzMyAyNzcuMzMzMzMzIDM2Mi42NjY2NjcgMzA3LjIgMzYyLjY2NjY2NyAzNDEuMzMzMzMzUzM5Mi41MzMzMzMgNDA1LjMzMzMzMyA0MjYuNjY2NjY3IDQwNS4zMzMzMzNzNjQtMjkuODY2NjY3IDY0LTY0UzQ2MC44IDI3Ny4zMzMzMzMgNDI2LjY2NjY2NyAyNzcuMzMzMzMzeiIvPjwvc3ZnPg==;" parent="1" vertex="1">
          <mxGeometry x="351" y="878.5" width="65" height="65" as="geometry" />
        </mxCell>
        <mxCell id="iZpdW9SJ8lec0mTw7yVw-15" value="&lt;font color=&quot;#4a909b&quot; style=&quot;font-size: 18px;&quot;&gt;&lt;b style=&quot;font-size: 18px;&quot;&gt;&lt;font style=&quot;font-size: 18px;&quot;&gt;2&lt;/font&gt;&lt;/b&gt;&lt;br style=&quot;font-size: 18px;&quot;&gt;&lt;/font&gt;" style="text;html=1;strokeColor=none;fillColor=none;align=center;verticalAlign=middle;whiteSpace=wrap;rounded=0;fontSize=18;" parent="1" vertex="1">
          <mxGeometry x="271" y="951.5" width="49" height="30" as="geometry" />
        </mxCell>
        <mxCell id="iZpdW9SJ8lec0mTw7yVw-16" value="&lt;font color=&quot;#4a909b&quot; style=&quot;font-size: 18px;&quot;&gt;&lt;b style=&quot;font-size: 18px;&quot;&gt;&lt;font style=&quot;font-size: 18px;&quot;&gt;3&lt;/font&gt;&lt;/b&gt;&lt;br style=&quot;font-size: 18px;&quot;&gt;&lt;/font&gt;" style="text;html=1;strokeColor=none;fillColor=none;align=center;verticalAlign=middle;whiteSpace=wrap;rounded=0;fontSize=18;" parent="1" vertex="1">
          <mxGeometry x="350" y="951.5" width="49" height="30" as="geometry" />
        </mxCell>
        <mxCell id="iZpdW9SJ8lec0mTw7yVw-18" value="" style="shape=image;verticalLabelPosition=bottom;labelBackgroundColor=default;verticalAlign=top;aspect=fixed;imageAspect=0;image=data:image/svg+xml,PHN2ZyB4bWxuczp4bGluaz0iaHR0cDovL3d3dy53My5vcmcvMTk5OS94bGluayIgeG1sbnM9Imh0dHA6Ly93d3cudzMub3JnLzIwMDAvc3ZnIiBoZWlnaHQ9IjIwMCIgd2lkdGg9IjIwMCIgdmVyc2lvbj0iMS4xIiB2aWV3Qm94PSIwIDAgMTAyNCAxMDI0IiBjbGFzcz0iaWNvbiI+PHBhdGggZmlsbD0iIzRhOTA5YyIgZD0iTTcyNS4zMzMzMzMgOTM4LjY2NjY2NyAxMjggOTM4LjY2NjY2N2MtMjEuMzMzMzMzIDAtMzguNC0xNy4wNjY2NjctNDIuNjY2NjY3LTM4LjRsLTg1LjMzMzMzMy03NjhjMC0xMi44IDQuMjY2NjY3LTI1LjYgOC41MzMzMzMtMzQuMTMzMzMzQzE3LjA2NjY2NyA4OS42IDI5Ljg2NjY2NyA4NS4zMzMzMzMgNDIuNjY2NjY3IDg1LjMzMzMzM2w3NjggMGMxMi44IDAgMjUuNiA0LjI2NjY2NyAyOS44NjY2NjcgMTIuOEM4NDkuMDY2NjY3IDEwNi42NjY2NjcgODUzLjMzMzMzMyAxMTkuNDY2NjY3IDg1My4zMzMzMzMgMTMyLjI2NjY2N2wtODUuMzMzMzMzIDc2OEM3NjMuNzMzMzMzIDkyMS42IDc0Ni42NjY2NjcgOTM4LjY2NjY2NyA3MjUuMzMzMzMzIDkzOC42NjY2Njd6TTE2Ni40IDg1My4zMzMzMzNsNTIwLjUzMzMzMyAwIDc2LjgtNjgyLjY2NjY2N0w4OS42IDE3MC42NjY2NjcgMTY2LjQgODUzLjMzMzMzM3oiLz48cGF0aCBmaWxsPSIjNGE5MDljIiBkPSJNOTUxLjQ2NjY2NyA2NjUuNmMtMzguNCAwLTk4LjEzMzMzMy0xNy4wNjY2NjctMjA5LjA2NjY2Ny03Ni44LTcyLjUzMzMzMy0zOC40LTE2Mi4xMzMzMzMtOTMuODY2NjY3LTI2OC44LTE2Mi4xMzMzMzMtNDIuNjY2NjY3LTI5Ljg2NjY2Ny03Mi41MzMzMzMtNDYuOTMzMzMzLTcyLjUzMzMzMy00Ni45MzMzMzNDMzg0IDM2Mi42NjY2NjcgMzc5LjczMzMzMyAzMzcuMDY2NjY3IDM5Mi41MzMzMzMgMzE1LjczMzMzM2MxMi44LTIxLjMzMzMzMyAzOC40LTI1LjYgNTkuNzMzMzMzLTEyLjggMCAwIDI1LjYgMTcuMDY2NjY3IDY4LjI2NjY2NyA0Ni45MzMzMzMgMzguNCAyNS42IDE1Ny44NjY2NjcgMTAyLjQgMjY0LjUzMzMzMyAxNTcuODY2NjY3IDg1LjMzMzMzMyA0Ni45MzMzMzMgMTI4IDU5LjczMzMzMyAxNDkuMzMzMzMzIDY0LTEyLjgtMzguNC02NC0xMDIuNC0xNzQuOTMzMzMzLTE4Ny43MzMzMzMtMTcuMDY2NjY3LTEyLjgtMjEuMzMzMzMzLTQyLjY2NjY2Ny04LjUzMzMzMy01OS43MzMzMzMgMTIuOC0xNy4wNjY2NjcgNDIuNjY2NjY3LTIxLjMzMzMzMyA1OS43MzMzMzMtOC41MzMzMzMgMTQ1LjA2NjY2NyAxMTAuOTMzMzMzIDIxMy4zMzMzMzMgMjAwLjUzMzMzMyAyMTMuMzMzMzMzIDI3My4wNjY2NjcgMCAyNS42LTEyLjggNDYuOTMzMzMzLTI5Ljg2NjY2NyA1OS43MzMzMzNDOTgxLjMzMzMzMyA2NjEuMzMzMzMzIDk2OC41MzMzMzMgNjY1LjYgOTUxLjQ2NjY2NyA2NjUuNnoiLz48cGF0aCBmaWxsPSIjNGE5MDljIiBkPSJNNDI2LjY2NjY2NyAzNDEuMzMzMzMzbS04NS4zMzMzMzMgMGEyIDIgMCAxIDAgMTcwLjY2NjY2NyAwIDIgMiAwIDEgMC0xNzAuNjY2NjY3IDBaIi8+PHBhdGggZmlsbD0iIzRhOTA5YyIgZD0iTTQyNi42NjY2NjcgNDQ4Yy01OS43MzMzMzMgMC0xMDYuNjY2NjY3LTQ2LjkzMzMzMy0xMDYuNjY2NjY3LTEwNi42NjY2NjdTMzY2LjkzMzMzMyAyMzQuNjY2NjY3IDQyNi42NjY2NjcgMjM0LjY2NjY2N3MxMDYuNjY2NjY3IDQ2LjkzMzMzMyAxMDYuNjY2NjY3IDEwNi42NjY2NjdTNDg2LjQgNDQ4IDQyNi42NjY2NjcgNDQ4ek00MjYuNjY2NjY3IDI3Ny4zMzMzMzNDMzkyLjUzMzMzMyAyNzcuMzMzMzMzIDM2Mi42NjY2NjcgMzA3LjIgMzYyLjY2NjY2NyAzNDEuMzMzMzMzUzM5Mi41MzMzMzMgNDA1LjMzMzMzMyA0MjYuNjY2NjY3IDQwNS4zMzMzMzNzNjQtMjkuODY2NjY3IDY0LTY0UzQ2MC44IDI3Ny4zMzMzMzMgNDI2LjY2NjY2NyAyNzcuMzMzMzMzeiIvPjwvc3ZnPg==;" parent="1" vertex="1">
          <mxGeometry x="431" y="878.5" width="65" height="65" as="geometry" />
        </mxCell>
        <mxCell id="iZpdW9SJ8lec0mTw7yVw-21" value="&lt;font color=&quot;#4a909b&quot; style=&quot;font-size: 18px;&quot;&gt;&lt;b style=&quot;font-size: 18px;&quot;&gt;&lt;font style=&quot;font-size: 18px;&quot;&gt;4&lt;/font&gt;&lt;/b&gt;&lt;br style=&quot;font-size: 18px;&quot;&gt;&lt;/font&gt;" style="text;html=1;strokeColor=none;fillColor=none;align=center;verticalAlign=middle;whiteSpace=wrap;rounded=0;fontSize=18;" parent="1" vertex="1">
          <mxGeometry x="431" y="951.5" width="49" height="30" as="geometry" />
        </mxCell>
        <mxCell id="iZpdW9SJ8lec0mTw7yVw-24" value="&lt;b style=&quot;border-color: var(--border-color); color: rgb(74, 144, 155);&quot;&gt;&lt;font style=&quot;border-color: var(--border-color); font-size: 24px;&quot;&gt;index:&lt;/font&gt;&lt;/b&gt;&lt;font color=&quot;#4a909b&quot;&gt;&lt;br&gt;&lt;/font&gt;" style="text;html=1;strokeColor=none;fillColor=none;align=center;verticalAlign=middle;whiteSpace=wrap;rounded=0;" parent="1" vertex="1">
          <mxGeometry x="9" y="949" width="93" height="30" as="geometry" />
        </mxCell>
        <mxCell id="ekyofGv6aXX_gGek1B51-1" value="&lt;font color=&quot;#4a909b&quot; style=&quot;font-size: 19px;&quot;&gt;小白debug&lt;/font&gt;" style="text;html=1;strokeColor=none;fillColor=none;align=center;verticalAlign=middle;whiteSpace=wrap;rounded=0;fontSize=16;textOpacity=40;" parent="1" vertex="1">
          <mxGeometry x="363" y="1046" width="185" height="30" as="geometry" />
        </mxCell>
        <mxCell id="ekyofGv6aXX_gGek1B51-2" value="" style="rounded=1;whiteSpace=wrap;html=1;strokeWidth=2;strokeColor=#4A909B;fillColor=none;" parent="1" vertex="1">
          <mxGeometry x="99" y="870" width="80" height="81" as="geometry" />
        </mxCell>
        <mxCell id="ekyofGv6aXX_gGek1B51-4" value="" style="rounded=1;whiteSpace=wrap;html=1;strokeWidth=2;strokeColor=#4A909B;fillColor=none;" parent="1" vertex="1">
          <mxGeometry x="179" y="870" width="80" height="81" as="geometry" />
        </mxCell>
        <mxCell id="ekyofGv6aXX_gGek1B51-5" value="" style="rounded=1;whiteSpace=wrap;html=1;strokeWidth=2;strokeColor=#4A909B;fillColor=none;" parent="1" vertex="1">
          <mxGeometry x="259" y="870" width="80" height="81" as="geometry" />
        </mxCell>
        <mxCell id="ekyofGv6aXX_gGek1B51-6" value="" style="rounded=1;whiteSpace=wrap;html=1;strokeWidth=2;strokeColor=#4A909B;fillColor=none;" parent="1" vertex="1">
          <mxGeometry x="339" y="870.5" width="80" height="81" as="geometry" />
        </mxCell>
        <mxCell id="ekyofGv6aXX_gGek1B51-7" value="" style="rounded=1;whiteSpace=wrap;html=1;strokeWidth=2;strokeColor=#4A909B;fillColor=none;" parent="1" vertex="1">
          <mxGeometry x="419" y="870" width="80" height="81" as="geometry" />
        </mxCell>
        <mxCell id="QooJCatuRvJQEd0rA1FC-4" style="edgeStyle=orthogonalEdgeStyle;rounded=0;orthogonalLoop=1;jettySize=auto;html=1;exitX=0.5;exitY=0;exitDx=0;exitDy=0;entryX=0.5;entryY=1;entryDx=0;entryDy=0;strokeColor=#4A909B;strokeWidth=2;endArrow=block;endFill=1;" edge="1" parent="1" source="QooJCatuRvJQEd0rA1FC-1" target="iZpdW9SJ8lec0mTw7yVw-9">
          <mxGeometry relative="1" as="geometry" />
        </mxCell>
        <mxCell id="QooJCatuRvJQEd0rA1FC-13" style="edgeStyle=orthogonalEdgeStyle;rounded=1;orthogonalLoop=1;jettySize=auto;html=1;exitX=0.5;exitY=0;exitDx=0;exitDy=0;curved=0;strokeColor=#4A909B;strokeWidth=2;opacity=50;" edge="1" parent="1" source="QooJCatuRvJQEd0rA1FC-1" target="QooJCatuRvJQEd0rA1FC-9">
          <mxGeometry relative="1" as="geometry" />
        </mxCell>
        <mxCell id="QooJCatuRvJQEd0rA1FC-1" value="" style="shape=image;verticalLabelPosition=bottom;labelBackgroundColor=default;verticalAlign=top;aspect=fixed;imageAspect=0;image=data:image/svg+xml,PHN2ZyB4bWxuczp4bGluaz0iaHR0cDovL3d3dy53My5vcmcvMTk5OS94bGluayIgeG1sbnM9Imh0dHA6Ly93d3cudzMub3JnLzIwMDAvc3ZnIiBoZWlnaHQ9IjIwMCIgd2lkdGg9IjIwMCIgdmVyc2lvbj0iMS4xIiB2aWV3Qm94PSIwIDAgMTAyNCAxMDI0IiBjbGFzcz0iaWNvbiI+PHBhdGggZmlsbD0iIzRhOTA5YyIgZD0iTTk0MC4xOTkgMjc0LjExMkw1MTIgMzYuMjIzIDgzLjgwMSAyNzQuMTEydjQ3NS43NzZMNTEyIDk4Ny43NzdsNDI4LjE5OS0yMzcuODg5VjI3NC4xMTJ6TTUxMiAxNDUuMTc2bDI4MS4xODQgMTU2LjA1NS0xNDMuMjA5IDc5LjQ1NWMtMzQuNzMxLTM2LjE2LTgzLjczNi01OC45OTctMTM3Ljk3NS01OC45OTdzLTEwMy4yNDQgMjIuODM4LTEzNy45NzUgNTguOTk3TDIzMC44MTYgMzAxLjIzIDUxMiAxNDUuMTc2eiBtLTQ3LjU3OCA3MDcuNDhMMTc4Ljk1NiA2OTQuMjIyVjM4MS42MzdsMTQ4LjkxOCA4Mi43ODVjLTQuMjgyIDE0Ljc1LTYuMTg1IDMwLjkyNi02LjE4NSA0Ny41NzggMCA4OC40OTQgNjAuNDI0IDE2My4xOTEgMTQyLjczMyAxODQuMTI2djE1Ni41M3pNNDE2Ljg0NSA1MTJjMC01Mi4zMzUgNDIuODItOTUuMTU1IDk1LjE1NS05NS4xNTVzOTUuMTU1IDQyLjgyIDk1LjE1NSA5NS4xNTUtNDIuODIgOTUuMTU1LTk1LjE1NSA5NS4xNTUtOTUuMTU1LTQyLjgyLTk1LjE1NS05NS4xNTV6IG0xNDIuNzMzIDM0MC42NTZWNjk2LjYwMWM4Mi4zMDktMjAuOTM0IDE0Mi43MzMtOTUuNjMgMTQyLjczMy0xODQuMTI1IDAtMTYuNjUyLTEuOTAzLTMyLjgyOS02LjE4NS00OC4wNTRsMTQ4LjkxOC04Mi43ODV2MzEyLjU4NUw1NTkuNTc4IDg1Mi42NTZ6Ii8+PC9zdmc+;" vertex="1" parent="1">
          <mxGeometry x="195.5" y="1034" width="38" height="38" as="geometry" />
        </mxCell>
        <mxCell id="QooJCatuRvJQEd0rA1FC-2" value="&lt;font color=&quot;#4a909b&quot; style=&quot;font-size: 18px;&quot;&gt;&lt;b style=&quot;font-size: 18px;&quot;&gt;&lt;font style=&quot;font-size: 18px;&quot;&gt;index = 6 %5 = 1&lt;/font&gt;&lt;/b&gt;&lt;br style=&quot;font-size: 18px;&quot;&gt;&lt;/font&gt;" style="text;html=1;strokeColor=none;fillColor=none;align=center;verticalAlign=middle;whiteSpace=wrap;rounded=0;fontSize=18;" vertex="1" parent="1">
          <mxGeometry x="142" y="1072.5" width="145" height="30" as="geometry" />
        </mxCell>
        <mxCell id="QooJCatuRvJQEd0rA1FC-5" value="" style="shape=image;verticalLabelPosition=bottom;labelBackgroundColor=default;verticalAlign=top;aspect=fixed;imageAspect=0;image=data:image/svg+xml,PHN2ZyB4bWxuczp4bGluaz0iaHR0cDovL3d3dy53My5vcmcvMTk5OS94bGluayIgeG1sbnM9Imh0dHA6Ly93d3cudzMub3JnLzIwMDAvc3ZnIiBoZWlnaHQ9IjIwMCIgd2lkdGg9IjIwMCIgdmVyc2lvbj0iMS4xIiB2aWV3Qm94PSIwIDAgMTAyNCAxMDI0IiBjbGFzcz0iaWNvbiI+PHBhdGggZmlsbD0iIzRhOTA5YyIgZD0iTTcyNS4zMzMzMzMgOTM4LjY2NjY2NyAxMjggOTM4LjY2NjY2N2MtMjEuMzMzMzMzIDAtMzguNC0xNy4wNjY2NjctNDIuNjY2NjY3LTM4LjRsLTg1LjMzMzMzMy03NjhjMC0xMi44IDQuMjY2NjY3LTI1LjYgOC41MzMzMzMtMzQuMTMzMzMzQzE3LjA2NjY2NyA4OS42IDI5Ljg2NjY2NyA4NS4zMzMzMzMgNDIuNjY2NjY3IDg1LjMzMzMzM2w3NjggMGMxMi44IDAgMjUuNiA0LjI2NjY2NyAyOS44NjY2NjcgMTIuOEM4NDkuMDY2NjY3IDEwNi42NjY2NjcgODUzLjMzMzMzMyAxMTkuNDY2NjY3IDg1My4zMzMzMzMgMTMyLjI2NjY2N2wtODUuMzMzMzMzIDc2OEM3NjMuNzMzMzMzIDkyMS42IDc0Ni42NjY2NjcgOTM4LjY2NjY2NyA3MjUuMzMzMzMzIDkzOC42NjY2Njd6TTE2Ni40IDg1My4zMzMzMzNsNTIwLjUzMzMzMyAwIDc2LjgtNjgyLjY2NjY2N0w4OS42IDE3MC42NjY2NjcgMTY2LjQgODUzLjMzMzMzM3oiLz48cGF0aCBmaWxsPSIjNGE5MDljIiBkPSJNOTUxLjQ2NjY2NyA2NjUuNmMtMzguNCAwLTk4LjEzMzMzMy0xNy4wNjY2NjctMjA5LjA2NjY2Ny03Ni44LTcyLjUzMzMzMy0zOC40LTE2Mi4xMzMzMzMtOTMuODY2NjY3LTI2OC44LTE2Mi4xMzMzMzMtNDIuNjY2NjY3LTI5Ljg2NjY2Ny03Mi41MzMzMzMtNDYuOTMzMzMzLTcyLjUzMzMzMy00Ni45MzMzMzNDMzg0IDM2Mi42NjY2NjcgMzc5LjczMzMzMyAzMzcuMDY2NjY3IDM5Mi41MzMzMzMgMzE1LjczMzMzM2MxMi44LTIxLjMzMzMzMyAzOC40LTI1LjYgNTkuNzMzMzMzLTEyLjggMCAwIDI1LjYgMTcuMDY2NjY3IDY4LjI2NjY2NyA0Ni45MzMzMzMgMzguNCAyNS42IDE1Ny44NjY2NjcgMTAyLjQgMjY0LjUzMzMzMyAxNTcuODY2NjY3IDg1LjMzMzMzMyA0Ni45MzMzMzMgMTI4IDU5LjczMzMzMyAxNDkuMzMzMzMzIDY0LTEyLjgtMzguNC02NC0xMDIuNC0xNzQuOTMzMzMzLTE4Ny43MzMzMzMtMTcuMDY2NjY3LTEyLjgtMjEuMzMzMzMzLTQyLjY2NjY2Ny04LjUzMzMzMy01OS43MzMzMzMgMTIuOC0xNy4wNjY2NjcgNDIuNjY2NjY3LTIxLjMzMzMzMyA1OS43MzMzMzMtOC41MzMzMzMgMTQ1LjA2NjY2NyAxMTAuOTMzMzMzIDIxMy4zMzMzMzMgMjAwLjUzMzMzMyAyMTMuMzMzMzMzIDI3My4wNjY2NjcgMCAyNS42LTEyLjggNDYuOTMzMzMzLTI5Ljg2NjY2NyA1OS43MzMzMzNDOTgxLjMzMzMzMyA2NjEuMzMzMzMzIDk2OC41MzMzMzMgNjY1LjYgOTUxLjQ2NjY2NyA2NjUuNnoiLz48cGF0aCBmaWxsPSIjNGE5MDljIiBkPSJNNDI2LjY2NjY2NyAzNDEuMzMzMzMzbS04NS4zMzMzMzMgMGEyIDIgMCAxIDAgMTcwLjY2NjY2NyAwIDIgMiAwIDEgMC0xNzAuNjY2NjY3IDBaIi8+PHBhdGggZmlsbD0iIzRhOTA5YyIgZD0iTTQyNi42NjY2NjcgNDQ4Yy01OS43MzMzMzMgMC0xMDYuNjY2NjY3LTQ2LjkzMzMzMy0xMDYuNjY2NjY3LTEwNi42NjY2NjdTMzY2LjkzMzMzMyAyMzQuNjY2NjY3IDQyNi42NjY2NjcgMjM0LjY2NjY2N3MxMDYuNjY2NjY3IDQ2LjkzMzMzMyAxMDYuNjY2NjY3IDEwNi42NjY2NjdTNDg2LjQgNDQ4IDQyNi42NjY2NjcgNDQ4ek00MjYuNjY2NjY3IDI3Ny4zMzMzMzNDMzkyLjUzMzMzMyAyNzcuMzMzMzMzIDM2Mi42NjY2NjcgMzA3LjIgMzYyLjY2NjY2NyAzNDEuMzMzMzMzUzM5Mi41MzMzMzMgNDA1LjMzMzMzMyA0MjYuNjY2NjY3IDQwNS4zMzMzMzNzNjQtMjkuODY2NjY3IDY0LTY0UzQ2MC44IDI3Ny4zMzMzMzMgNDI2LjY2NjY2NyAyNzcuMzMzMzMzeiIvPjwvc3ZnPg==;opacity=50;strokeColor=#6DB5A8;" vertex="1" parent="1">
          <mxGeometry x="511" y="878.5" width="65" height="65" as="geometry" />
        </mxCell>
        <mxCell id="QooJCatuRvJQEd0rA1FC-6" value="&lt;font color=&quot;#4a909b&quot; style=&quot;font-size: 18px;&quot;&gt;&lt;b style=&quot;font-size: 18px;&quot;&gt;&lt;font style=&quot;font-size: 18px;&quot;&gt;5&lt;/font&gt;&lt;/b&gt;&lt;br style=&quot;font-size: 18px;&quot;&gt;&lt;/font&gt;" style="text;html=1;strokeColor=none;fillColor=none;align=center;verticalAlign=middle;whiteSpace=wrap;rounded=0;fontSize=18;opacity=40;textOpacity=50;" vertex="1" parent="1">
          <mxGeometry x="511" y="951.5" width="49" height="30" as="geometry" />
        </mxCell>
        <mxCell id="QooJCatuRvJQEd0rA1FC-7" value="" style="rounded=1;whiteSpace=wrap;html=1;strokeWidth=2;strokeColor=#6DB5A8;fillColor=none;opacity=50;" vertex="1" parent="1">
          <mxGeometry x="499" y="870" width="80" height="81" as="geometry" />
        </mxCell>
        <mxCell id="QooJCatuRvJQEd0rA1FC-8" value="" style="shape=image;verticalLabelPosition=bottom;labelBackgroundColor=default;verticalAlign=top;aspect=fixed;imageAspect=0;image=data:image/svg+xml,PHN2ZyB4bWxuczp4bGluaz0iaHR0cDovL3d3dy53My5vcmcvMTk5OS94bGluayIgeG1sbnM9Imh0dHA6Ly93d3cudzMub3JnLzIwMDAvc3ZnIiBoZWlnaHQ9IjIwMCIgd2lkdGg9IjIwMCIgdmVyc2lvbj0iMS4xIiB2aWV3Qm94PSIwIDAgMTAyNCAxMDI0IiBjbGFzcz0iaWNvbiI+PHBhdGggZmlsbD0iIzRhOTA5YyIgZD0iTTcyNS4zMzMzMzMgOTM4LjY2NjY2NyAxMjggOTM4LjY2NjY2N2MtMjEuMzMzMzMzIDAtMzguNC0xNy4wNjY2NjctNDIuNjY2NjY3LTM4LjRsLTg1LjMzMzMzMy03NjhjMC0xMi44IDQuMjY2NjY3LTI1LjYgOC41MzMzMzMtMzQuMTMzMzMzQzE3LjA2NjY2NyA4OS42IDI5Ljg2NjY2NyA4NS4zMzMzMzMgNDIuNjY2NjY3IDg1LjMzMzMzM2w3NjggMGMxMi44IDAgMjUuNiA0LjI2NjY2NyAyOS44NjY2NjcgMTIuOEM4NDkuMDY2NjY3IDEwNi42NjY2NjcgODUzLjMzMzMzMyAxMTkuNDY2NjY3IDg1My4zMzMzMzMgMTMyLjI2NjY2N2wtODUuMzMzMzMzIDc2OEM3NjMuNzMzMzMzIDkyMS42IDc0Ni42NjY2NjcgOTM4LjY2NjY2NyA3MjUuMzMzMzMzIDkzOC42NjY2Njd6TTE2Ni40IDg1My4zMzMzMzNsNTIwLjUzMzMzMyAwIDc2LjgtNjgyLjY2NjY2N0w4OS42IDE3MC42NjY2NjcgMTY2LjQgODUzLjMzMzMzM3oiLz48cGF0aCBmaWxsPSIjNGE5MDljIiBkPSJNOTUxLjQ2NjY2NyA2NjUuNmMtMzguNCAwLTk4LjEzMzMzMy0xNy4wNjY2NjctMjA5LjA2NjY2Ny03Ni44LTcyLjUzMzMzMy0zOC40LTE2Mi4xMzMzMzMtOTMuODY2NjY3LTI2OC44LTE2Mi4xMzMzMzMtNDIuNjY2NjY3LTI5Ljg2NjY2Ny03Mi41MzMzMzMtNDYuOTMzMzMzLTcyLjUzMzMzMy00Ni45MzMzMzNDMzg0IDM2Mi42NjY2NjcgMzc5LjczMzMzMyAzMzcuMDY2NjY3IDM5Mi41MzMzMzMgMzE1LjczMzMzM2MxMi44LTIxLjMzMzMzMyAzOC40LTI1LjYgNTkuNzMzMzMzLTEyLjggMCAwIDI1LjYgMTcuMDY2NjY3IDY4LjI2NjY2NyA0Ni45MzMzMzMgMzguNCAyNS42IDE1Ny44NjY2NjcgMTAyLjQgMjY0LjUzMzMzMyAxNTcuODY2NjY3IDg1LjMzMzMzMyA0Ni45MzMzMzMgMTI4IDU5LjczMzMzMyAxNDkuMzMzMzMzIDY0LTEyLjgtMzguNC02NC0xMDIuNC0xNzQuOTMzMzMzLTE4Ny43MzMzMzMtMTcuMDY2NjY3LTEyLjgtMjEuMzMzMzMzLTQyLjY2NjY2Ny04LjUzMzMzMy01OS43MzMzMzMgMTIuOC0xNy4wNjY2NjcgNDIuNjY2NjY3LTIxLjMzMzMzMyA1OS43MzMzMzMtOC41MzMzMzMgMTQ1LjA2NjY2NyAxMTAuOTMzMzMzIDIxMy4zMzMzMzMgMjAwLjUzMzMzMyAyMTMuMzMzMzMzIDI3My4wNjY2NjcgMCAyNS42LTEyLjggNDYuOTMzMzMzLTI5Ljg2NjY2NyA1OS43MzMzMzNDOTgxLjMzMzMzMyA2NjEuMzMzMzMzIDk2OC41MzMzMzMgNjY1LjYgOTUxLjQ2NjY2NyA2NjUuNnoiLz48cGF0aCBmaWxsPSIjNGE5MDljIiBkPSJNNDI2LjY2NjY2NyAzNDEuMzMzMzMzbS04NS4zMzMzMzMgMGEyIDIgMCAxIDAgMTcwLjY2NjY2NyAwIDIgMiAwIDEgMC0xNzAuNjY2NjY3IDBaIi8+PHBhdGggZmlsbD0iIzRhOTA5YyIgZD0iTTQyNi42NjY2NjcgNDQ4Yy01OS43MzMzMzMgMC0xMDYuNjY2NjY3LTQ2LjkzMzMzMy0xMDYuNjY2NjY3LTEwNi42NjY2NjdTMzY2LjkzMzMzMyAyMzQuNjY2NjY3IDQyNi42NjY2NjcgMjM0LjY2NjY2N3MxMDYuNjY2NjY3IDQ2LjkzMzMzMyAxMDYuNjY2NjY3IDEwNi42NjY2NjdTNDg2LjQgNDQ4IDQyNi42NjY2NjcgNDQ4ek00MjYuNjY2NjY3IDI3Ny4zMzMzMzNDMzkyLjUzMzMzMyAyNzcuMzMzMzMzIDM2Mi42NjY2NjcgMzA3LjIgMzYyLjY2NjY2NyAzNDEuMzMzMzMzUzM5Mi41MzMzMzMgNDA1LjMzMzMzMyA0MjYuNjY2NjY3IDQwNS4zMzMzMzNzNjQtMjkuODY2NjY3IDY0LTY0UzQ2MC44IDI3Ny4zMzMzMzMgNDI2LjY2NjY2NyAyNzcuMzMzMzMzeiIvPjwvc3ZnPg==;opacity=50;strokeColor=#6DB5A8;" vertex="1" parent="1">
          <mxGeometry x="591" y="878.5" width="65" height="65" as="geometry" />
        </mxCell>
        <mxCell id="QooJCatuRvJQEd0rA1FC-9" value="&lt;font color=&quot;#4a909b&quot; style=&quot;font-size: 18px;&quot;&gt;&lt;b style=&quot;font-size: 18px;&quot;&gt;&lt;font style=&quot;font-size: 18px;&quot;&gt;6&lt;/font&gt;&lt;/b&gt;&lt;br style=&quot;font-size: 18px;&quot;&gt;&lt;/font&gt;" style="text;html=1;strokeColor=none;fillColor=none;align=center;verticalAlign=middle;whiteSpace=wrap;rounded=0;fontSize=18;opacity=40;textOpacity=50;" vertex="1" parent="1">
          <mxGeometry x="591" y="951.5" width="49" height="30" as="geometry" />
        </mxCell>
        <mxCell id="QooJCatuRvJQEd0rA1FC-10" value="" style="rounded=1;whiteSpace=wrap;html=1;strokeWidth=2;strokeColor=#6DB5A8;fillColor=none;opacity=50;" vertex="1" parent="1">
          <mxGeometry x="579" y="870" width="80" height="81" as="geometry" />
        </mxCell>
      </root>
    </mxGraphModel>
  </diagram>
</mxfile>
